#N canvas 0 0 581 495 10;
#X obj 21 170 stave;
#X obj 28 108 t b;
#X floatatom 21 71 5 0 0 0 - - -;
#X obj 21 87 * 0.1;
#X floatatom 61 71 5 0 0 0 - - -;
#X obj 61 87 * 0.1;
#X floatatom 101 71 5 0 0 0 - - -;
#X obj 101 87 * 0.1;
#X obj 61 170 tgl 15 0 empty empty empty 17 7 0 10 -262144 -1 -1 1
1;
#X obj 256 57 gemwin;
#X msg 283 38 0 \, destroy;
#X obj 21 24 loadbang;
#X msg 21 52 -36;
#X obj 366 19 sharpsandflats;
#X msg 61 52 19;
#X msg 344 145 reclock;
#X obj 344 164 s g0;
#X floatatom 384 58 5 0 0 0 - - -;
#N canvas 0 0 450 300 cpu_load 0;
#X obj 118 168 cputime;
#X obj 118 28 loadbang;
#X obj 118 112 metro 1000;
#X msg 118 56 1;
#X floatatom 118 84 0 0 0 0 - - -;
#X obj 118 140 t b b;
#X obj 118 228 * 0.1;
#X obj 118 197 int;
#X text 163 84 <-- on/off;
#X obj 121 259 outlet;
#X connect 0 0 7 0;
#X connect 1 0 3 0;
#X connect 2 0 5 0;
#X connect 3 0 4 0;
#X connect 4 0 2 0;
#X connect 5 0 0 0;
#X connect 5 1 0 1;
#X connect 6 0 9 0;
#X connect 7 0 6 0;
#X restore 384 38 pd cpu_load;
#X text 161 247 Noteobjects are connected together to form a beamed
group.;
#X obj 51 263 noteobject 1.3 16 72 1 0 0.5 1 0 1 0 4 1 0 0 0 g0;
#X obj 167 305 noteobject 2.5 16 83 1 0 0.5 1 0 1 0 4 3 2 0 0 g0;
#X obj 375 164 s g1;
#X text 204 356 Beamed tuples are similarly connected.;
#X obj 124 284 noteobject 1.9 16 70 1 0 0.5 1 0 1 0 4 2 1 0 0 g0;
#X obj 227 326 noteobject 3.1 16 80 1 0 0.5 1 0 1 0 4 4 3 0 0 g0;
#X obj 21 373 noteobject 3.7 16 72 1 0 0.5 1 0 1 0 5 5 0 0 5 g1;
#X obj 94 394 noteobject 4.1 16 74 1 0 0.5 1 0 1 0 5 6 1 0 5 g1;
#X obj 137 415 noteobject 4.5 16 75 1 0 0.5 1 0 1 0 5 7 2 0 5 g1;
#X obj 197 436 noteobject 4.9 16 82 1 0 0.5 1 0 1 0 5 8 3 0 5 g1;
#X obj 257 456 noteobject 5.3 16 63 1 0 0.5 1 0 1 0 5 9 4 0 5 g1;
#X msg 88 169 1;
#X obj 128 169 loadbang;
#X floatatom 151 91 5 0 100 2 R - -;
#X floatatom 191 91 5 0 100 2 G - -;
#X floatatom 231 91 5 0 100 2 B - -;
#X obj 151 107 * 0.01;
#X obj 191 107 * 0.01;
#X obj 231 107 * 0.01;
#X msg 21 148 x \$1 \, y \$2 \, z \$3 \, len 16 \, clef 1 \, r \$4
\, g \$5 \, b \$6;
#X msg 101 52 14;
#X obj 21 129 pack f f f 0.1 0 0;
#X text 353 370 (but no rests yet - to be fixed);
#X text 94 476 <c> 2011 Edward Kelly \, morph_2016@yahoo.co.uk;
#X msg 115 19 dimen 800 640 \, create \, 1 \, color 1 1 0.96;
#X connect 0 0 20 0;
#X connect 0 0 21 0;
#X connect 0 0 24 0;
#X connect 0 0 25 0;
#X connect 0 0 26 0;
#X connect 0 0 27 0;
#X connect 0 0 28 0;
#X connect 0 0 29 0;
#X connect 0 0 30 0;
#X connect 1 0 41 0;
#X connect 2 0 3 0;
#X connect 3 0 41 0;
#X connect 4 0 5 0;
#X connect 5 0 1 0;
#X connect 5 0 41 1;
#X connect 6 0 7 0;
#X connect 7 0 1 0;
#X connect 7 0 41 2;
#X connect 8 0 0 1;
#X connect 10 0 9 0;
#X connect 11 0 12 0;
#X connect 11 0 14 0;
#X connect 11 0 40 0;
#X connect 12 0 2 0;
#X connect 14 0 4 0;
#X connect 15 0 16 0;
#X connect 15 0 22 0;
#X connect 18 0 17 0;
#X connect 20 1 21 2;
#X connect 20 1 24 2;
#X connect 20 1 25 2;
#X connect 21 0 24 3;
#X connect 24 0 20 3;
#X connect 25 0 21 3;
#X connect 26 1 27 2;
#X connect 26 1 28 2;
#X connect 26 1 29 2;
#X connect 26 1 30 2;
#X connect 27 0 26 3;
#X connect 28 0 27 3;
#X connect 29 0 28 3;
#X connect 30 0 29 3;
#X connect 31 0 8 0;
#X connect 32 0 31 0;
#X connect 33 0 36 0;
#X connect 34 0 37 0;
#X connect 35 0 38 0;
#X connect 36 0 1 0;
#X connect 36 0 41 3;
#X connect 37 0 1 0;
#X connect 37 0 41 4;
#X connect 38 0 1 0;
#X connect 38 0 41 5;
#X connect 39 0 0 0;
#X connect 40 0 6 0;
#X connect 41 0 39 0;
#X connect 41 0 15 0;
#X connect 44 0 9 0;
