#N canvas 15 88 1097 661 10;
#X obj 41 41 inlet;
#X obj 339 40 inlet;
#X obj 82 602 text3d;
#X obj 367 210 > 0;
#X obj 41 503 gemhead;
#X obj 167 127 pack f f f;
#X obj 128 157 s \$0-z;
#N canvas 0 22 450 300 clockit 0;
#X obj 61 57 inlet;
#X obj 61 122 spigot 1;
#X obj 151 122 t b;
#X obj 151 141 f;
#X obj 176 141 + 1;
#X msg 186 97 0;
#X msg 151 98 1;
#X obj 61 174 outlet;
#X obj 159 57 inlet;
#X obj 159 78 t b b;
#X obj 242 59 r \$0-clocked;
#X obj 151 160 < 8;
#X connect 0 0 1 0;
#X connect 1 0 2 0;
#X connect 1 0 7 0;
#X connect 2 0 3 0;
#X connect 3 0 4 0;
#X connect 3 0 11 0;
#X connect 4 0 3 1;
#X connect 5 0 3 1;
#X connect 6 0 1 1;
#X connect 8 0 9 0;
#X connect 9 0 6 0;
#X connect 9 1 5 0;
#X connect 11 0 1 1;
#X restore 99 63 pd clockit;
#X obj 166 65 r \$0-reclock;
#X text 352 538 0-2 = F-FFF \, 3-5 = P-PPP 6=mF 7=mP;
#X obj 329 556 sel 0 1 2 3 4 5 6 7;
#X msg 275 585 text 5;
#X msg 320 585 text 4;
#X msg 365 585 text 3;
#X msg 410 585 text 8;
#X msg 455 585 text 6;
#X msg 500 585 text 0;
#X msg 545 585 text 1;
#X msg 591 585 text 2;
#X obj 400 189 \$3;
#X obj 273 539 \$2;
#X obj 74 574 color 0 0 0;
#N canvas 0 22 450 300 inittext 0;
#X obj 128 155 outlet;
#X obj 279 151 outlet;
#X obj 150 57 r \$0-lbn;
#X msg 27 110 font fonts/Music8.ttf \, justify left top;
#X msg 283 110 7;
#X connect 2 0 3 0;
#X connect 2 0 4 0;
#X connect 3 0 0 0;
#X connect 4 0 1 0;
#X restore 146 585 pd inittext;
#X obj 103 452 + \$1;
#X obj 156 43 t b;
#X obj 161 452 + \$6;
#X obj 275 123 s \$0-lbn;
#X msg 308 50 0;
#X obj 252 50 spigot 1;
#X obj 252 96 loadbang;
#X obj 251 71 t b;
#X obj 273 518 r \$0-lbn;
#X obj 198 429 t b f;
#X floatatom 208 406 5 0 0 0 - - -;
#X obj 306 84 route xoff dynst len dyned bt;
#X obj 464 120 * 1.5;
#X obj 463 146 - 1;
#X obj 387 167 r \$0-lbn;
#X obj 339 60 route \$6;
#X obj 526 98 \$5;
#X obj 526 72 r \$0-lbn;
#X obj 332 355 gemhead;
#X obj 115 421 t b f;
#X floatatom 125 398 5 0 0 0 - - -;
#X obj 373 284 + \$1;
#X obj 466 277 t b f;
#X floatatom 477 237 5 0 0 0 - - -;
#X obj 422 275 t b f;
#X floatatom 438 237 5 0 0 0 - - -;
#X obj 352 465 rectangle \$3 0.01;
#X msg 191 12 bang;
#X msg 438 55 len \$1;
#X floatatom 442 24 5 0 0 0 - - -;
#X obj 448 316 +;
#X obj 414 314 +;
#X obj 352 414 rotateXYZ 0 0 4;
#X obj 449 355 - 1.85;
#X obj 515 354 gemhead;
#X obj 518 463 rectangle \$3 0.01;
#X obj 616 324 +;
#X obj 562 323 +;
#X obj 519 408 rotateXYZ 0 0 -4;
#X obj 616 349 - 2.05;
#X obj 541 225 * 57.2958;
#X obj 535 198 / \$3;
#X obj 530 148 moses 1e-07;
#X obj 586 170 t b f;
#X obj 603 254 * -1;
#X msg 248 573 1;
#X msg 219 573 0;
#X msg 531 174 0.1;
#X obj 512 254 * 1;
#X obj 644 523 text3d;
#X obj 688 354 gemhead;
#X obj 750 477 sel 0 1 2 3 4 5 6 7;
#X msg 696 506 text 5;
#X msg 741 506 text 4;
#X msg 786 506 text 3;
#X msg 831 506 text 8;
#X msg 876 506 text 6;
#X msg 921 506 text 0;
#X msg 966 506 text 1;
#X msg 1012 506 text 2;
#X obj 688 398 color 0 0 0;
#N canvas 0 22 450 300 inittext 0;
#X obj 128 155 outlet;
#X obj 279 151 outlet;
#X obj 150 57 r \$0-lbn;
#X msg 27 110 font fonts/Music8.ttf \, justify left top;
#X msg 283 110 7;
#X connect 2 0 3 0;
#X connect 2 0 4 0;
#X connect 3 0 0 0;
#X connect 4 0 1 0;
#X restore 547 495 pd inittext;
#X obj 741 233 + \$1;
#X obj 789 233 + \$6;
#X obj 847 416 r \$0-lbn;
#X obj 811 202 t b f;
#X obj 753 202 t b f;
#X msg 669 494 1;
#X msg 640 494 0;
#X obj 847 437 \$4;
#X obj 350 439 color 0 0 0;
#X obj 519 437 color 0 0 0;
#X obj 725 262 +;
#X obj 695 232 t b f;
#X obj 657 230 * 2;
#X obj 156 521 - 0.4;
#X obj 778 288 - 0.4;
#X obj 394 353 + 0.7;
#X obj 561 347 + 0.7;
#X obj 728 293 + 0.72;
#X obj 677 285 &&;
#X obj 658 261 t b f;
#X text 700 54 xoff dynst len dyned bt object-id;
#X obj 736 91 \$4;
#X obj 664 87 \$2;
#X obj 713 113 t b f;
#X obj 684 139 <;
#X msg 627 192 1;
#X msg 655 192 -1;
#X msg 691 183 -1;
#X msg 719 184 1;
#X obj 667 161 sel 1 0;
#X obj 539 253 t b f;
#X obj 613 232 t b f;
#X obj 670 17 r \$0-lbn;
#X obj 644 45 t b b;
#X obj 99 99 unpack f f f f f f f f f;
#X obj 39 478 &&;
#X obj 39 454 t b f;
#X obj 332 334 &&;
#X obj 332 310 t b f;
#X obj 515 333 &&;
#X obj 516 312 t b f;
#X obj 682 331 &&;
#X obj 681 307 t b f;
#X obj 100 17 r reclock;
#X obj 688 376 translateXYZ -40 -40 0;
#X obj 520 378 translateXYZ -40 -40 0;
#X obj 353 384 translateXYZ -40 -40 0;
#X obj 68 546 translateXYZ -40 -40 0;
#X connect 0 0 7 0;
#X connect 0 0 28 0;
#X connect 1 0 38 0;
#X connect 3 0 104 0;
#X connect 3 0 123 0;
#X connect 3 0 125 0;
#X connect 4 0 132 0;
#X connect 5 0 21 1;
#X connect 5 0 93 1;
#X connect 5 0 94 1;
#X connect 5 0 83 1;
#X connect 7 0 119 0;
#X connect 8 0 7 1;
#X connect 10 0 11 0;
#X connect 10 0 68 0;
#X connect 10 1 12 0;
#X connect 10 1 68 0;
#X connect 10 2 13 0;
#X connect 10 2 68 0;
#X connect 10 3 14 0;
#X connect 10 3 68 0;
#X connect 10 4 15 0;
#X connect 10 4 68 0;
#X connect 10 5 16 0;
#X connect 10 5 68 0;
#X connect 10 6 17 0;
#X connect 10 6 68 0;
#X connect 10 7 18 0;
#X connect 10 7 68 0;
#X connect 10 8 69 0;
#X connect 11 0 2 0;
#X connect 12 0 2 0;
#X connect 13 0 2 0;
#X connect 14 0 2 0;
#X connect 15 0 2 0;
#X connect 16 0 2 0;
#X connect 17 0 2 0;
#X connect 18 0 2 0;
#X connect 19 0 3 0;
#X connect 19 0 49 1;
#X connect 19 0 47 0;
#X connect 19 0 58 1;
#X connect 19 0 65 0;
#X connect 19 0 97 0;
#X connect 20 0 10 0;
#X connect 21 0 2 0;
#X connect 22 0 2 0;
#X connect 22 1 2 1;
#X connect 23 0 132 1;
#X connect 24 0 7 1;
#X connect 25 0 98 0;
#X connect 27 0 28 1;
#X connect 28 0 27 0;
#X connect 28 0 30 0;
#X connect 29 0 26 0;
#X connect 30 0 26 0;
#X connect 31 0 20 0;
#X connect 32 0 25 0;
#X connect 32 1 25 1;
#X connect 33 0 32 0;
#X connect 34 0 42 0;
#X connect 34 0 89 0;
#X connect 34 1 10 0;
#X connect 34 1 107 0;
#X connect 34 2 19 0;
#X connect 34 3 74 0;
#X connect 34 3 106 0;
#X connect 34 4 35 0;
#X connect 35 0 36 0;
#X connect 36 0 32 0;
#X connect 36 0 45 0;
#X connect 36 0 88 0;
#X connect 37 0 19 0;
#X connect 38 0 24 0;
#X connect 38 0 34 0;
#X connect 39 0 35 0;
#X connect 40 0 39 0;
#X connect 41 0 131 0;
#X connect 42 0 23 0;
#X connect 42 1 23 1;
#X connect 43 0 42 0;
#X connect 44 0 54 0;
#X connect 44 0 60 0;
#X connect 45 0 53 0;
#X connect 45 0 59 0;
#X connect 45 1 53 1;
#X connect 45 1 59 1;
#X connect 46 0 45 0;
#X connect 47 0 54 0;
#X connect 47 0 60 0;
#X connect 47 1 54 1;
#X connect 47 1 60 1;
#X connect 48 0 47 0;
#X connect 50 0 24 0;
#X connect 50 0 26 0;
#X connect 51 0 34 0;
#X connect 52 0 51 0;
#X connect 53 0 56 0;
#X connect 54 0 100 0;
#X connect 55 0 93 0;
#X connect 56 0 131 2;
#X connect 57 0 130 0;
#X connect 59 0 62 0;
#X connect 60 0 101 0;
#X connect 61 0 94 0;
#X connect 62 0 130 2;
#X connect 63 0 67 0;
#X connect 63 0 71 0;
#X connect 64 0 63 0;
#X connect 65 1 66 0;
#X connect 66 0 70 0;
#X connect 66 1 64 1;
#X connect 67 0 61 3;
#X connect 68 0 120 0;
#X connect 69 0 120 0;
#X connect 70 0 64 0;
#X connect 71 0 55 3;
#X connect 73 0 129 0;
#X connect 74 0 75 0;
#X connect 74 0 90 0;
#X connect 74 1 76 0;
#X connect 74 1 90 0;
#X connect 74 2 77 0;
#X connect 74 2 90 0;
#X connect 74 3 78 0;
#X connect 74 3 90 0;
#X connect 74 4 79 0;
#X connect 74 4 90 0;
#X connect 74 5 80 0;
#X connect 74 5 90 0;
#X connect 74 6 81 0;
#X connect 74 6 90 0;
#X connect 74 7 82 0;
#X connect 74 7 90 0;
#X connect 74 8 91 0;
#X connect 75 0 72 0;
#X connect 76 0 72 0;
#X connect 77 0 72 0;
#X connect 78 0 72 0;
#X connect 79 0 72 0;
#X connect 80 0 72 0;
#X connect 81 0 72 0;
#X connect 82 0 72 0;
#X connect 83 0 72 0;
#X connect 84 0 72 0;
#X connect 84 1 72 1;
#X connect 85 0 95 0;
#X connect 86 0 99 0;
#X connect 87 0 92 0;
#X connect 88 0 86 0;
#X connect 88 1 86 1;
#X connect 89 0 85 0;
#X connect 89 1 85 1;
#X connect 90 0 103 0;
#X connect 91 0 103 0;
#X connect 92 0 74 0;
#X connect 93 0 49 0;
#X connect 94 0 58 0;
#X connect 95 0 102 0;
#X connect 96 0 95 0;
#X connect 96 1 95 1;
#X connect 97 0 96 0;
#X connect 98 0 132 2;
#X connect 99 0 129 2;
#X connect 100 0 131 1;
#X connect 101 0 130 1;
#X connect 102 0 129 1;
#X connect 103 0 127 0;
#X connect 104 0 103 0;
#X connect 104 1 103 1;
#X connect 106 0 108 0;
#X connect 107 0 109 0;
#X connect 108 0 109 0;
#X connect 108 1 109 1;
#X connect 109 0 114 0;
#X connect 110 0 115 0;
#X connect 111 0 116 0;
#X connect 112 0 115 0;
#X connect 113 0 116 0;
#X connect 114 0 110 0;
#X connect 114 0 111 0;
#X connect 114 1 113 0;
#X connect 114 1 112 0;
#X connect 115 0 71 0;
#X connect 115 1 71 1;
#X connect 116 0 67 0;
#X connect 116 1 67 1;
#X connect 117 0 118 0;
#X connect 118 0 107 0;
#X connect 118 1 106 0;
#X connect 119 0 23 0;
#X connect 119 0 44 0;
#X connect 119 0 85 0;
#X connect 119 1 25 0;
#X connect 119 1 53 0;
#X connect 119 1 59 0;
#X connect 119 1 86 0;
#X connect 119 2 6 0;
#X connect 119 2 129 3;
#X connect 119 2 130 3;
#X connect 119 2 131 3;
#X connect 119 2 132 3;
#X connect 119 5 5 0;
#X connect 119 6 5 1;
#X connect 119 7 5 2;
#X connect 119 8 121 0;
#X connect 119 8 126 0;
#X connect 119 8 122 0;
#X connect 119 8 124 0;
#X connect 120 0 4 0;
#X connect 121 0 120 0;
#X connect 121 1 120 1;
#X connect 122 0 41 0;
#X connect 123 0 122 0;
#X connect 123 1 122 1;
#X connect 124 0 57 0;
#X connect 125 0 124 0;
#X connect 125 1 124 1;
#X connect 126 0 73 0;
#X connect 127 0 126 0;
#X connect 127 1 126 1;
#X connect 128 0 7 1;
#X connect 129 0 83 0;
#X connect 130 0 61 0;
#X connect 131 0 55 0;
#X connect 132 0 21 0;
