#N canvas 0 22 589 298 10;
#X obj 98 163 seq;
#X obj 68 62 openpanel;
#X obj 97 18 bng 15 250 50 0 empty empty empty 17 7 0 10 -262144 -1
-1;
#X obj 155 155 bng 15 250 50 0 empty empty empty 17 7 0 10 -262144
-1 -1;
#X msg 96 103 set read \$1 \, bang;
#X msg 261 90 stop;
#X obj 98 183 serialize 3;
#X obj 71 258 outlet;
#X obj 247 19 inlet;
#X obj 244 42 sel 1 0;
#X obj 138 63 symbol;
#X obj 115 204 route 128 144 176;
#X obj 145 229 prepend noteoff;
#X obj 242 229 prepend noteon;
#X obj 333 229 prepend controller;
#X obj 206 259 outlet;
#X msg 96 131 read /media/sda3/Data/puredata/2010/vibra/midi/M1.mid
;
#X obj 282 188 outlet;
#X obj 74 204 t a a;
#X obj 324 94 loadbang;
#X obj 309 67 delay 0;
#X obj 100 41 route bang symbol;
#X obj 150 6 inlet;
#X connect 0 0 6 0;
#X connect 0 1 17 0;
#X connect 1 0 4 0;
#X connect 2 0 1 0;
#X connect 3 0 0 0;
#X connect 4 0 16 0;
#X connect 5 0 0 0;
#X connect 6 0 18 0;
#X connect 8 0 9 0;
#X connect 9 0 0 0;
#X connect 9 1 5 0;
#X connect 9 1 20 0;
#X connect 10 0 4 0;
#X connect 11 0 12 0;
#X connect 11 1 13 0;
#X connect 11 2 14 0;
#X connect 12 0 15 0;
#X connect 13 0 15 0;
#X connect 14 0 15 0;
#X connect 16 0 0 0;
#X connect 18 0 7 0;
#X connect 18 1 11 0;
#X connect 20 0 16 0;
#X connect 21 0 1 0;
#X connect 21 1 10 0;
#X connect 22 0 21 0;
