#N canvas 0 22 486 625 10;
#X obj 96 195 l2s .;
#X msg 86 150 .;
#X msg 127 150 .;
#X obj 96 176 list;
#X obj 96 214 prepend text;
#X obj 86 112 t f b;
#X obj 86 131 kalashnikov;
#X obj 99 485 translateXYZ;
#X obj 16 203 gemhead;
#X obj 99 568 text3d;
#X msg 330 552 justify left top;
#X obj 242 527 loadbang;
#X obj 270 80 inlet;
#X obj 301 308 gemhead;
#X obj 301 393 translateXYZ;
#X msg 393 186 #;
#X msg 360 193 ";
#X obj 357 308 prepend text;
#X obj 296 259 > 0;
#X obj 375 156 sel 1 2;
#X obj 405 568 text3d;
#X obj 124 268 t b;
#X obj 122 352 outlet;
#X obj 81 516 color 1 1 1;
#X obj 389 261 pack f f f;
#X obj 398 226 t b;
#X obj 300 425 color 1 1 1;
#X obj 123 299 del 0;
#X obj 369 16 inlet;
#X obj 16 293 t b;
#X obj 122 331 pack f f f f f 1 1 1 f;
#X text 359 0 activate;
#X msg 158 522 11;
#X msg 224 588 justify;
#X obj 296 281 &&;
#X obj 320 239 t b f;
#X obj 19 313 spigot 1;
#X obj 67 250 == 0;
#X obj 270 99 route x y z fs len clef r g b slow;
#X obj 23 343 spigot;
#X obj 13 407 cup;
#X obj 45 389 >= 1;
#X obj 44 409 sel 1;
#X obj 44 430 del 0;
#X msg 46 451 0;
#X obj 82 279 > 0;
#X msg 153 84 0;
#X obj 153 61 loadbang;
#X obj 227 469 r font;
#X obj 223 492 sel 0 1;
#X obj 373 37 sel 0;
#X msg 451 138 0;
#X msg 400 75 0;
#X obj 373 56 t b b;
#X obj 310 467 scaleXYZ 1 1 1;
#X msg 420 380 1;
#X msg 421 437 0.86;
#X obj 8 265 metro 20;
#X msg 154 552 font fonts/Music7.ttf;
#X msg 271 509 font fonts/Music7chunky.ttf;
#X connect 0 0 3 1;
#X connect 0 0 4 0;
#X connect 1 0 3 0;
#X connect 2 0 3 1;
#X connect 3 0 0 0;
#X connect 4 0 9 0;
#X connect 5 0 6 0;
#X connect 5 1 2 0;
#X connect 6 0 1 0;
#X connect 7 0 23 0;
#X connect 8 0 7 0;
#X connect 10 0 9 0;
#X connect 10 0 20 0;
#X connect 11 0 58 0;
#X connect 11 0 10 0;
#X connect 11 0 32 0;
#X connect 12 0 38 0;
#X connect 13 0 14 0;
#X connect 14 0 26 0;
#X connect 15 0 17 0;
#X connect 16 0 17 0;
#X connect 17 0 20 0;
#X connect 18 0 34 0;
#X connect 19 0 16 0;
#X connect 19 1 15 0;
#X connect 19 1 55 0;
#X connect 19 1 56 0;
#X connect 21 0 27 0;
#X connect 23 0 9 0;
#X connect 24 0 23 1;
#X connect 24 0 26 1;
#X connect 25 0 24 0;
#X connect 26 0 54 0;
#X connect 27 0 30 0;
#X connect 28 0 8 0;
#X connect 28 0 35 0;
#X connect 28 0 50 0;
#X connect 29 0 36 0;
#X connect 29 0 39 0;
#X connect 30 0 22 0;
#X connect 32 0 9 1;
#X connect 32 0 20 1;
#X connect 33 0 9 0;
#X connect 34 0 13 0;
#X connect 35 0 34 0;
#X connect 35 1 34 1;
#X connect 36 0 30 0;
#X connect 37 0 36 1;
#X connect 38 0 7 1;
#X connect 38 0 14 1;
#X connect 38 0 30 0;
#X connect 38 1 7 2;
#X connect 38 1 21 0;
#X connect 38 1 14 2;
#X connect 38 1 30 1;
#X connect 38 2 7 3;
#X connect 38 2 21 0;
#X connect 38 2 14 3;
#X connect 38 2 30 2;
#X connect 38 3 20 1;
#X connect 38 3 21 0;
#X connect 38 4 5 0;
#X connect 38 4 21 0;
#X connect 38 4 30 3;
#X connect 38 5 19 0;
#X connect 38 5 18 0;
#X connect 38 5 21 0;
#X connect 38 5 30 4;
#X connect 38 6 24 0;
#X connect 38 6 21 0;
#X connect 38 6 30 5;
#X connect 38 7 24 1;
#X connect 38 7 25 0;
#X connect 38 7 21 0;
#X connect 38 7 30 6;
#X connect 38 8 24 2;
#X connect 38 8 25 0;
#X connect 38 8 21 0;
#X connect 38 8 30 7;
#X connect 38 9 37 0;
#X connect 38 9 45 0;
#X connect 38 9 41 1;
#X connect 39 0 40 0;
#X connect 40 0 41 0;
#X connect 41 0 42 0;
#X connect 42 0 43 0;
#X connect 42 0 30 0;
#X connect 43 0 44 0;
#X connect 44 0 40 0;
#X connect 45 0 39 1;
#X connect 46 0 8 0;
#X connect 46 0 35 0;
#X connect 47 0 46 0;
#X connect 48 0 49 0;
#X connect 49 0 58 0;
#X connect 49 1 59 0;
#X connect 50 0 53 0;
#X connect 50 1 30 8;
#X connect 50 1 57 0;
#X connect 51 0 30 8;
#X connect 52 0 30 8;
#X connect 52 0 57 0;
#X connect 53 0 30 0;
#X connect 53 1 52 0;
#X connect 54 0 20 0;
#X connect 55 0 54 1;
#X connect 56 0 54 1;
#X connect 57 0 29 0;
#X connect 58 0 9 0;
#X connect 58 0 20 0;
#X connect 59 0 9 0;
